# xmcd CD database file
#
# Track frame offsets:
#	150
#	30640
#	44150
#	59580
#	72177
#	83930
#	102270
#	122112
#	140457
#	161277
#	182885
#	203747
#	231780
#	252180
#	276555
#	300457
#
# Disc length: 4349 seconds
#
# Revision: 5
# Processed by: cddbd v1.5.1PL0 Copyright (c) Steve Scherf et al.
# Submitted via: CDex 1.51
#
DISCID=e910fb10
DTITLE=???? - LIFE Disc 1
DYEAR=1996
DGENRE=New Age
TTITLE0=??????
TTITLE1=???????????
TTITLE2=???
TTITLE3=??????
TTITLE4=?????
TTITLE5=??????????
TTITLE6=?????????
TTITLE7=???????????????
TTITLE8=??? MY LOVE
TTITLE9=???????
TTITLE10=??
TTITLE11=???????
TTITLE12=??
TTITLE13=??????
TTITLE14=???????
TTITLE15=????
EXTD=YEAR: 1996
EXTT0=
EXTT1=
EXTT2=
EXTT3=
EXTT4=
EXTT5=
EXTT6=
EXTT7=
EXTT8=
EXTT9=
EXTT10=
EXTT11=
EXTT12=
EXTT13=
EXTT14=
EXTT15=
PLAYORDER=
